<svg id="그룹_3377" data-name="그룹 3377" xmlns="http://www.w3.org/2000/svg" width="37.121" height="37.121" viewBox="0 0 37.121 37.121">
  <path id="패스_6987" data-name="패스 6987" d="M0,0H37.121V37.121H0Z" fill="none"/>
  <path id="패스_6988" data-name="패스 6988" d="M11.187,7C6.547,7,5,11.644,5,15.511c0,4.64,3.093,11.6,6.187,11.6,1.683-.071,2.6-.773,4.64-.773s2.32.773,4.64.773,6.187-4.64,6.187-7.734a4.68,4.68,0,0,1-3.867-4.64c-.029-3.356,3.737-4.569,3.867-4.64A8.111,8.111,0,0,0,21.24,7c-2.216-.172-4.377,1.547-5.413,1.547C14.775,8.551,12.888,7,11.187,7Z" transform="translate(2.734 3.823)" fill="none" stroke="#000" stroke-linecap="round" stroke-linejoin="round" stroke-width="1.5"/>
  <path id="패스_6989" data-name="패스 6989" d="M12,5.093A3.093,3.093,0,0,0,15.093,2,3.093,3.093,0,0,0,12,5.093" transform="translate(6.561 1.093)" fill="none" stroke="#000" stroke-linecap="round" stroke-linejoin="round" stroke-width="1.5"/>
</svg>
