<?xml version="1.0" encoding="utf-8"?>
<!-- Generator: Adobe Illustrator 25.4.1, SVG Export Plug-In . SVG Version: 6.00 Build 0)  -->
<svg version="1.1" id="레이어_1" xmlns="http://www.w3.org/2000/svg" xmlns:xlink="http://www.w3.org/1999/xlink" x="0px"
	 y="0px" viewBox="0 0 35.9 36.1" style="enable-background:new 0 0 35.9 36.1;" xml:space="preserve">
<style type="text/css">
	.st0{fill:#CFD1D3;}
</style>
<g>
	<path class="st0" d="M1.8,0h12.6c1,0,1.8,0.8,1.8,1.8v12.6c0,1-0.8,1.8-1.8,1.8H1.8c-1,0-1.8-0.8-1.8-1.8V1.8C0,0.8,0.8,0,1.8,0z"
		/>
</g>
<g>
	<path class="st0" d="M21.5,0h12.6c1,0,1.8,0.8,1.8,1.8v12.6c0,1-0.8,1.8-1.8,1.8H21.5c-1,0-1.8-0.8-1.8-1.8V1.8
		C19.8,0.8,20.6,0,21.5,0z"/>
</g>
<g>
	<path class="st0" d="M1.8,19.9h12.6c1,0,1.8,0.8,1.8,1.8v12.6c0,1-0.8,1.8-1.8,1.8H1.8c-1,0-1.8-0.8-1.8-1.8V21.7
		C0,20.7,0.8,19.9,1.8,19.9z"/>
</g>
<g>
	<path class="st0" d="M21.5,19.9h12.6c1,0,1.8,0.8,1.8,1.8v12.6c0,1-0.8,1.8-1.8,1.8H21.5c-1,0-1.8-0.8-1.8-1.8V21.7
		C19.8,20.7,20.6,19.9,21.5,19.9z"/>
</g>
<g>
	<path class="st0" d="M1.8,19.9h12.6c1,0,1.8,0.8,1.8,1.8v12.6c0,1-0.8,1.8-1.8,1.8H1.8c-1,0-1.8-0.8-1.8-1.8V21.7
		C0,20.7,0.8,19.9,1.8,19.9z"/>
</g>
<g>
	<path class="st0" d="M1.8,0h12.6c1,0,1.8,0.8,1.8,1.8v12.6c0,1-0.8,1.8-1.8,1.8H1.8c-1,0-1.8-0.8-1.8-1.8V1.8C0,0.8,0.8,0,1.8,0z"
		/>
</g>
</svg>
