<?xml version="1.0" encoding="utf-8"?>
<!-- Generator: Adobe Illustrator 25.4.1, SVG Export Plug-In . SVG Version: 6.00 Build 0)  -->
<svg version="1.1" id="레이어_1" xmlns="http://www.w3.org/2000/svg" xmlns:xlink="http://www.w3.org/1999/xlink" x="0px"
	 y="0px" viewBox="0 0 35.1 36.1" style="enable-background:new 0 0 35.1 36.1;" xml:space="preserve">
<style type="text/css">
	.st0{fill:#CFD1D3;}
	.st1{fill:none;stroke:#CFD1D3;stroke-width:2.3;stroke-linecap:round;stroke-linejoin:round;stroke-miterlimit:10;}
</style>
<g>
	<path class="st0" d="M1.8,19.9h12.6c1,0,1.8,0.8,1.8,1.8v12.6c0,1-0.8,1.8-1.8,1.8H1.8c-1,0-1.8-0.8-1.8-1.8V21.7
		C0,20.7,0.8,19.9,1.8,19.9z"/>
</g>
<g>
	<path class="st0" d="M1.8,0h12.6c1,0,1.8,0.8,1.8,1.8v12.6c0,1-0.8,1.8-1.8,1.8H1.8c-1,0-1.8-0.8-1.8-1.8V1.8C0,0.8,0.8,0,1.8,0z"
		/>
</g>
<line class="st1" x1="34" y1="23.2" x2="21.2" y2="23.2"/>
<line class="st1" x1="33.8" y1="32.8" x2="21" y2="32.8"/>
<line class="st1" x1="34" y1="3.1" x2="21.2" y2="3.1"/>
<line class="st1" x1="33.8" y1="13.2" x2="21" y2="13.2"/>
</svg>
